/vscmnt/brussel_pixiu_data/_data_brussel/112/vsc11236/PredSimResults/SUBJ09mtu3D/weighted-LRposFixed/trackIG/worker_01.mot
version=1
nRows=6
nColumns=50
inDegrees=yes
endheader
                time	         pelvis_tilt	         pelvis_list	     pelvis_rotation	           pelvis_tx	           pelvis_ty	           pelvis_tz	       hip_flexion_r	     hip_adduction_r	      hip_rotation_r	        knee_angle_r	       ankle_angle_r	         mtp_angle_r	       hip_flexion_l	     hip_adduction_l	      hip_rotation_l	        knee_angle_l	       ankle_angle_l	         mtp_angle_l	    lumbar_extension	      lumbar_bending	     lumbar_rotation	 ercspn_r/activation	 intobl_r/activation	 extobl_r/activation	    abd_r/activation	    add_r/activation	hamstrings_r/activation	bifemsh_r/activation	glut_max_r/activation	iliopsoas_r/activation	rect_fem_r/activation	  vasti_r/activation	gastroc_r/activation	 soleus_r/activation	tib_ant_r/activation	 ercspn_l/activation	 intobl_l/activation	 extobl_l/activation	    abd_l/activation	    add_l/activation	hamstrings_l/activation	bifemsh_l/activation	glut_max_l/activation	iliopsoas_l/activation	rect_fem_l/activation	  vasti_l/activation	gastroc_l/activation	 soleus_l/activation	tib_ant_l/activation	
          1.91068616	         -7.45850315	          4.55775031	         -7.59515646	          2.27371654	          0.98026990	          0.01206020	        -11.37602846	         -4.81375765	          4.82371857	         -7.40874084	         10.14161310	         28.64487980	         31.06582797	          1.60439718	         -5.23648250	         -2.87741027	          6.23484572	          0.22829973	         -0.53842536	         -3.17567325	          3.58590270	          0.07700533	          0.01000161	          0.01000334	          0.04667336	          0.02494415	          0.01690958	          0.11625015	          0.03848181	          0.46541744	          0.01213068	          0.01040106	          0.30603345	          0.26286869	          0.01390950	          0.08025153	          0.11906752	          0.02897411	          0.01137057	          0.10699368	          0.10871700	          0.19974245	          0.05299347	          0.10597456	          0.01001925	          0.01000235	          0.02601666	          0.01469815	          0.26722910	
          1.92342407	         -7.53546710	          4.50586605	         -7.55756416	          2.29219978	          0.97838855	          0.01183086	        -11.46160927	         -4.77123625	          4.41465778	         -9.09237903	          9.34252997	         30.71554020	         31.03859824	          1.70580088	         -5.05022683	         -4.57001221	          5.82886429	          0.19982924	         -0.23708586	         -3.51569972	          3.70222485	          0.07987518	          0.01000119	          0.01000562	          0.03850000	          0.02316654	          0.01462281	          0.09589341	          0.03174311	          0.44476003	          0.01002025	          0.02153692	          0.27065443	          0.23928635	          0.01147376	          0.06619932	          0.10062376	          0.02390034	          0.05350711	          0.08825799	          0.09731175	          0.16480639	          0.10246238	          0.08741638	          0.01000318	          0.01000094	          0.02146151	          0.01212541	          0.31100163	
          1.93616198	         -7.59390899	          4.45157774	         -7.47033316	          2.31090185	          0.97693414	          0.01150696	        -11.36070783	         -4.71628150	          3.98474255	        -11.14321629	          8.33978357	         32.81010051	         30.82386926	          1.81645255	         -4.87822417	         -5.94020036	          5.23077496	          0.18878432	          0.06590368	         -3.86085365	          3.78646951	          0.09936030	          0.01000124	          0.01000305	          0.03175794	          0.01991481	          0.02207308	          0.07910162	          0.02618442	          0.42291005	          0.01206209	          0.01777229	          0.22325778	          0.19738372	          0.01000027	          0.06870164	          0.08300315	          0.01971510	          0.11038053	          0.09130026	          0.08172893	          0.13595005	          0.14617507	          0.07210810	          0.01000260	          0.01000075	          0.01770368	          0.01000252	          0.35072218	
          1.94889989	         -7.63402640	          4.39188051	         -7.33854075	          2.32950406	          0.97611188	          0.01109343	        -10.97489302	         -4.64236670	          3.54191423	        -13.69745826	          7.13800592	         34.79143006	         30.53491975	          1.94324167	         -4.71666665	         -7.20393127	          4.66445772	          0.15769394	          0.33810974	         -4.20831390	          3.83769063	          0.13712741	          0.01000112	          0.01000383	          0.02619653	          0.03545991	          0.01822358	          0.06525099	          0.02159912	          0.39309158	          0.01001664	          0.01466047	          0.18416085	          0.16281793	          0.01000038	          0.06871250	          0.06846801	          0.01626281	          0.15303424	          0.11878249	          0.06741957	          0.11214416	          0.18313419	          0.05948061	          0.01000414	          0.01000870	          0.01460492	          0.01000920	          0.37763720	
          1.96163780	         -7.65405933	          4.32639278	         -7.16444870	          2.34781649	          0.97600764	          0.01060233	        -10.24394617	         -4.55017096	          3.08805632	        -16.83418912	          5.75692044	         36.42181722	         30.22882060	          2.08134578	         -4.55705200	         -8.49197007	          4.33661332	          0.13468505	          0.56385412	         -4.55686226	          3.85395955	          0.15903174	          0.01000170	          0.01000424	          0.02160903	          0.05797917	          0.01767626	          0.05382823	          0.01781676	          0.33979681	          0.01000441	          0.01209343	          0.15191055	          0.13430524	          0.01000146	          0.07243316	          0.05647820	          0.01341515	          0.17274474	          0.12064870	          0.05796915	          0.09250713	          0.19760883	          0.04906444	          0.01000535	          0.04878973	          0.01204984	          0.01001235	          0.38783735	
          1.97437570	         -7.65435141	          4.24270744	         -6.94988294	          2.36576029	          0.97665514	          0.01006660	         -9.15964296	         -4.43314142	          2.61617528	        -20.54496690	          4.26091510	         37.28521705	         29.86277268	          2.21672934	         -4.39450814	         -9.69812880	          4.15284467	          0.11423492	          0.73973764	         -4.89293098	          3.83380815	          0.16868932	          0.01000141	          0.01000377	          0.01782489	          0.07170106	          0.01461983	          0.04441583	          0.01469677	          0.28029219	          0.01000238	          0.01000049	          0.12530793	          0.11078569	          0.01000051	          0.05975156	          0.04658800	          0.01106642	          0.17107111	          0.09952262	          0.05045689	          0.07630905	          0.18907080	          0.04047237	          0.01000388	          0.11815304	          0.01001442	          0.01001245	          0.38760907	
